<mxfile host="app.diagrams.net" modified="2023-11-04T12:56:18.945Z" agent="Mozilla/5.0 (Windows NT 10.0; Win64; x64) AppleWebKit/537.36 (KHTML, like Gecko) Chrome/119.0.0.0 Safari/537.36" version="21.7.1" etag="9oKqXzjYLUCNxrh0Mtte" type="github">
  <diagram name="Page-1" id="GAao0HyGWw_7PslbScHx">
    <mxGraphModel>
      <root>
        <mxCell id="0" />
        <mxCell id="1" parent="0" />
      </root>
    </mxGraphModel>
  </diagram>
</mxfile>
